<svg width="640" height="480" xmlns="http://www.w3.org/2000/svg">
 <g>
  <title>Layer 1</title>
  <path fill="#fad201" d="m-0.03308,0.34831l640.06615,0l0,479.30337l-640.06615,0l0,-479.30337z" id="svg_1" stroke="null"/>
  <path fill="#00a3e0" d="m-0.03308,0.34831l640.06615,0l0,239.65169l-640.06615,0l0,-239.65169z" id="svg_2" stroke="null"/>
  <path fill="#20603d" d="m-0.03308,359.82583l640.06615,0l0,119.82584l-640.06615,0l0,-119.82584z" id="svg_3" stroke="null"/>
  <g id="svg_4" stroke="null">
   <path fill="#e5be01" d="m525.1494,51.00466l2.78593,47.94106l15.05386,-45.58601l-9.67485,47.03527l26.30015,-40.12244l-21.47504,42.91804l35.74934,-31.92503l-31.81457,35.87345l42.76955,-21.5496l-39.98362,26.39147l46.87254,-9.70844l-45.42828,15.10613l47.77519,2.7956l-47.77519,2.7956l45.42828,15.10613l-46.87254,-9.70844l39.98362,26.39147l-42.76955,-21.5496l31.81457,35.87345l-35.74934,-31.92503l21.47504,42.91804l-26.30015,-40.12244l9.67485,47.03527l-15.05386,-45.58601l-2.78593,47.94106l-2.78593,-47.94106l-15.05386,45.58601l9.67485,-47.03527l-26.30015,40.12244l21.47504,-42.91804l-35.74934,31.92503l31.81457,-35.87345l-42.76955,21.5496l39.98362,-26.39147l-46.87254,9.70844l45.42828,-15.10613l-47.77519,-2.7956l47.77519,-2.7956l-45.42828,-15.10613l46.87254,9.70844l-39.98362,-26.39147l42.76955,21.5496l-31.81457,-35.87345l35.74934,31.92503l-21.47504,-42.91804l26.30015,40.12244l-9.67485,-47.03527l15.05386,45.58601l2.78593,-47.94106z" id="svg_5" stroke="null"/>
   <circle fill="none" r="20.10465" stroke-width="6" cy="120.17417" cx="525.1494" id="svg_6" stroke="#00a3e0"/>
  </g>
 </g>
</svg>