<svg xmlns="http://www.w3.org/2000/svg" width="80" height="29" fill="none"><path fill="#EE312A" fill-rule="evenodd" d="M27.69 14.07c0 7.77-6.2 14.07-13.845 14.07S0 21.848 0 14.07C0 6.293 6.2 0 13.845 0 21.5 0 27.691 6.301 27.691 14.07" clip-rule="evenodd"/><path fill="#fff" fill-rule="evenodd" d="M13.846 20.102C10.749 12.971 8.479 6.301 8.479 6.301H3.732s2.89 8.558 8.256 19.255h3.715C21.07 14.858 23.96 6.3 23.96 6.3h-4.747s-2.27 6.661-5.366 13.801" clip-rule="evenodd"/><path fill="#00425F" fill-rule="evenodd" d="M73.479 13.34c-2.683 0-2.89 2.936-2.89 2.936h5.78s-.207-2.936-2.89-2.936m6.406 5.873H70.59s.207 3.146 4.335 3.146c2.063 0 4.127-.629 4.127-.629l.413 3.356s-2.064.839-4.953.839c-4.128 0-7.843-2.097-7.843-7.97 0-4.615 2.89-7.552 7.017-7.552 6.2 0 6.613 6.293 6.2 8.81M48.29 14.254l.635-3.465s-4.937-1.518-8.95 1.3V25.95h4.26V14.69c1.71-1.3 4.055-.436 4.055-.436m-17.76-.914c-2.682 0-2.889 2.936-2.889 2.936h5.78s-.207-2.936-2.89-2.936m6.4 5.873H27.64s.207 3.146 4.335 3.146c2.064 0 4.128-.629 4.128-.629l.413 3.356s-2.065.839-4.954.839c-4.128 0-7.843-2.097-7.843-7.97 0-4.615 2.89-7.552 7.017-7.552 6.192 0 6.605 6.293 6.192 8.81m21.762 1.435c-2.163-5.278-3.244-10.245-3.244-10.245H51.12s2.163 8.491 5.846 15.522h3.459c3.674-7.03 5.845-15.522 5.845-15.522h-4.326c-.008 0-1.09 4.967-3.253 10.245" clip-rule="evenodd"/></svg>